<?xml version="1.0" encoding="utf-8"?>
<!-- Generator: Adobe Illustrator 26.0.1, SVG Export Plug-In . SVG Version: 6.00 Build 0)  -->
<svg version="1.1" id="Layer_1" xmlns="http://www.w3.org/2000/svg" xmlns:xlink="http://www.w3.org/1999/xlink" x="0px" y="0px"
	 viewBox="0 0 1075.17 250.63" style="enable-background:new 0 0 1075.17 250.63;" xml:space="preserve">
<style type="text/css">
	.st0{fill:#180D4C;}
	.st1{fill:#B395F5;}
	.st2{fill:#8769EB;}
	.st3{fill:#FFFFFF;}
</style>
<g>
	<g>
		<path class="st3" d="M409.6,40.15c42.98,0,64.47,14.87,64.47,44.59c0,13.59-7.99,23.7-23.95,30.32
			c21.57,7.31,32.36,20.98,32.36,41.03c0,14.27-5.99,25.82-17.96,34.65c-11.98,8.83-28.58,13.25-49.82,13.25H309.96V40.15H409.6z
			 M342.84,66.4v40.26h68.29c21.06,0,31.6-6.63,31.6-19.88c0-13.59-11.04-20.39-33.13-20.39H342.84z M342.84,132.14v45.61h70.07
			c23.1,0,34.65-7.73,34.65-23.19c0-14.95-11.64-22.42-34.91-22.42H342.84z"/>
		<path class="st3" d="M529.36,89.33v21.41c6.96-14.27,18.77-21.41,35.42-21.41h23.7v25.74h-22.93c-15.12,0-24.8,3.91-29.05,11.72
			c-4.25,7.81-6.37,22.93-6.37,45.36V204h-32.62V89.33H529.36z"/>
		<path class="st3" d="M601.47,56.2c0-5.43,1.91-10.1,5.73-14.01c3.82-3.91,8.37-5.86,13.63-5.86c5.43,0,10.1,1.95,14.01,5.86
			c3.91,3.91,5.86,8.58,5.86,14.01c0,5.27-1.96,9.81-5.86,13.63c-3.91,3.82-8.58,5.73-14.01,5.73c-5.27,0-9.81-1.91-13.63-5.73
			C603.38,66.02,601.47,61.47,601.47,56.2z M637.4,89.33V204h-32.36V89.33H637.4z"/>
		<path class="st3" d="M673.84,102.84c12.4-10.36,28.88-15.54,49.43-15.54c1.87,0,3.73,0,5.61,0c17.84,0.68,31.68,7.13,41.54,19.37
			V40.15h32.36V204h-31.6v-18.6c-10.19,12.91-24.12,19.79-41.79,20.64c-2.21,0.17-4.42,0.25-6.63,0.25
			c-20.56,0-37.25-5.31-50.07-15.93c-12.83-10.61-19.24-25.1-19.24-43.45C653.45,129.08,660.25,114.39,673.84,102.84z M698.56,172.4
			c7.98,6.12,17.75,9.17,29.3,9.17c12.23,0,22.51-3.01,30.83-9.05c8.32-6.03,12.48-14.65,12.48-25.86c0-12.06-4.12-20.9-12.36-26.5
			c-8.24-5.61-18.56-8.41-30.96-8.41c-11.72,0-21.53,3.1-29.43,9.3c-7.9,6.2-11.85,14.82-11.85,25.86
			C686.58,157.79,690.57,166.29,698.56,172.4z"/>
		<path class="st3" d="M816.79,146.92c0-17.84,6.5-32.24,19.49-43.19c13-10.96,29.77-16.44,50.33-16.44c1.87,0,3.74,0,5.61,0
			c18.18,0.68,32.27,7.48,42.3,20.39V89.33h31.6v126.39c0,14.1-2.89,23.44-8.66,28.03c-5.78,4.59-16.48,6.88-32.11,6.88H828v-25.74
			h97.34c3.22,0,5.43-0.64,6.63-1.91c1.19-1.27,1.78-3.61,1.78-7.01v-29.81c-10.02,12.4-23.7,19.02-41.02,19.88
			c-2.21,0.17-4.42,0.25-6.63,0.25c-20.56,0-37.25-5.31-50.07-15.93C823.2,179.75,816.79,165.27,816.79,146.92z M861.89,172.4
			c7.98,6.12,17.75,9.17,29.3,9.17c12.23,0,22.51-3.01,30.83-9.05c8.32-6.03,12.49-14.65,12.49-25.86c0-12.06-4.12-20.9-12.36-26.5
			c-8.24-5.61-18.56-8.41-30.96-8.41c-11.72,0-21.53,3.1-29.43,9.3c-7.9,6.2-11.85,14.82-11.85,25.86
			C849.91,157.79,853.9,166.29,861.89,172.4z"/>
		<path class="st3" d="M1016.05,89.33v21.41c6.96-14.27,18.77-21.41,35.42-21.41h23.7v25.74h-22.93c-15.12,0-24.8,3.91-29.05,11.72
			c-4.25,7.81-6.37,22.93-6.37,45.36V204H984.2V89.33H1016.05z"/>
	</g>
	<g>
		<g>
			<polygon class="st1" points="191.26,73.06 191.26,225.36 32.11,225.36 4.86,196.25 162.21,196.25 162.21,73.06 			"/>
		</g>
		<g>
			<polygon class="st2" points="227.81,36.56 227.81,193.29 198.71,220.5 198.71,65.61 73.19,65.61 73.19,36.56 			"/>
		</g>
		<g>
			<polygon class="st1" points="222.95,29.11 65.61,29.11 65.61,152.3 36.5,152.3 36.5,0 195.71,0 			"/>
		</g>
		<g>
			<polygon class="st2" points="154.59,159.75 154.59,188.8 0,188.8 0,32.11 29.05,4.88 29.05,159.75 			"/>
		</g>
	</g>
</g>
</svg>
